<svg width="266" height="40" viewBox="0 0 266 40" fill="none" xmlns="http://www.w3.org/2000/svg">
<g clip-path="url(#clip0_17269_156694)">
<path d="M256.634 26.9295L256.906 26.8457C259.198 26.1219 261.054 24.9295 262.42 23.2952C263.997 21.4095 264.801 19.1962 264.801 16.7162C264.801 13.5886 263.572 10.96 261.15 8.89522C258.743 6.84951 255.471 5.80951 251.418 5.80951H232.206V39.2114H239.087V27.6152H249.317L257.2 39.2114H265.153L256.634 26.9295ZM238.946 21.3143V12.1143H251.49C253.97 12.1143 255.738 12.6362 256.745 13.6686C257.694 14.64 257.801 15.8705 257.801 16.7162C257.801 17.5581 257.69 18.7886 256.745 19.7638C255.738 20.7962 253.97 21.3181 251.49 21.3181L238.946 21.3143ZM195.329 5.80951H227.193V12.1143H214.633V39.2076H207.89V12.1143H195.329V5.80951ZM183.554 5.80951H190.316V39.2114H180.81L164.009 13.7028V39.2114H157.247V5.80951H166.753L183.554 31.3181V5.80951ZM132.827 5.15045C127.948 5.15045 123.757 6.83808 120.378 10.16C116.999 13.4857 115.284 17.6381 115.284 22.5105C115.284 27.3828 116.999 31.539 120.378 34.8609C123.757 38.1828 127.944 39.8705 132.827 39.8705C138.204 39.8705 142.796 38.0609 146.47 34.4952C147.833 33.0933 148.989 31.3638 149.911 29.3562H142.846C142.211 30.259 141.461 31.0209 140.611 31.6343C138.667 33.2038 136.05 34 132.823 34C130.187 34 127.841 33.1809 125.851 31.5619C123.861 29.9428 122.571 27.6952 122.016 24.8724L121.966 24.6171H150.362V22.5105C150.362 17.6381 148.648 13.4857 145.269 10.16C141.893 6.83808 137.707 5.15426 132.827 5.15045ZM122.307 19.4095L122.364 19.1505C122.919 16.6819 124.19 14.6857 126.134 13.2228C128.078 11.7638 130.328 11.0247 132.827 11.0247C135.785 11.0247 138.189 11.8247 139.98 13.4019C141.763 14.9752 142.877 16.9143 143.294 19.1581L143.34 19.4095H122.307ZM106.972 5.80951H113.78L101.14 39.2114H90.2329L77.3436 5.80569H84.4006L95.805 33.5314L106.972 5.80951ZM70.9717 10.6248C67.5159 7.42856 63.0805 5.80951 57.7878 5.80951H41.7757V39.2114H57.7878C63.0843 39.2114 67.5198 37.5924 70.9717 34.3962C74.4313 31.1962 76.1879 27.1962 76.1879 22.5105C76.1879 17.8247 74.4313 13.8247 70.9717 10.6248ZM66.077 30.0076C64.0028 31.9352 61.2129 32.9105 57.7839 32.9105H48.515V12.1143H57.7839C61.2129 12.1143 64.0028 13.0895 66.077 15.0171C68.1742 16.9638 69.1922 19.4171 69.1922 22.5105C69.1922 25.6038 68.1742 28.0571 66.077 30.0038V30.0076ZM8.11736 15.5466H1.03744C1.38187 12.1219 2.89353 9.48189 5.53797 7.69141C7.9528 6.05332 11.2899 5.18855 15.182 5.18855H17.8341C21.7529 5.18855 23.9764 3.47046 24.4509 0.0761719H31.5308C31.1864 3.50093 29.6747 6.14094 27.0303 7.93141C24.6155 9.56951 21.2783 10.4343 17.3863 10.4343H14.7342C10.8154 10.4343 8.5919 12.1562 8.11736 15.5466ZM25.5301 14.819H32.4034V39.1847H25.6679V34.3848L25.2737 34.8952C22.5948 38.3352 19.1735 39.8705 14.1793 39.8705H13.1384C9.62901 39.8705 6.67076 39.0209 4.57357 37.4133C2.21998 35.6076 1.02979 32.9447 1.02979 29.4895C1.02979 25.6533 2.83229 22.7543 6.39139 20.8762C9.56013 19.2038 14.03 18.3543 19.6863 18.3543H25.5263V14.819H25.5301ZM25.5301 23.5619H18.1861C14.9294 23.5619 12.549 23.9543 10.9072 24.7581C9.05114 25.6686 8.1097 27.1466 8.1097 29.1619C8.1097 33.1619 11.2096 34 13.8119 34H16.8926C19.3687 34 21.5003 33.3752 23.0502 32.1905C24.6729 30.9486 25.534 29.1809 25.534 27.0743V23.5619H25.5301Z" fill="white"/>
</g>
<defs>
<clipPath id="clip0_17269_156694">
<rect width="264.444" height="40" fill="white" transform="translate(0.964844)"/>
</clipPath>
</defs>
</svg>
