<svg width="45" height="40" viewBox="0 0 45 40" fill="none" xmlns="http://www.w3.org/2000/svg">
<g clip-path="url(#clip0_17269_156343)">
<path d="M33.6678 26.735C33.6678 26.735 29.7366 0.256082 22.0785 0C15.2883 1.28041 10.9487 19.0013 10.9487 19.0013C10.9487 19.0013 16.2073 8.70679 21.6701 8.29706C27.1329 7.88732 33.6678 26.735 33.6678 26.735Z" fill="white" fill-opacity="0.5"/>
<path d="M33.6678 26.735C33.6678 26.735 29.7877 0.614597 22.2317 0C22.1296 0 22.0275 0 21.9254 0C15.2373 1.53649 10.9487 19.0013 10.9487 19.0013C10.9487 19.0013 16.2073 5.78745 21.7211 5.37772C27.1329 5.01921 33.6678 26.735 33.6678 26.735Z" fill="white"/>
<path d="M19.1175 14.4941C19.1175 14.4941 -1.45732 28.9884 0.686946 36.7221C3.18859 42.9192 22.5891 38.361 22.5891 38.361C22.5891 38.361 9.92773 37.3879 8.14084 33.393C6.35395 29.3981 19.1175 14.4941 19.1175 14.4941Z" fill="white" fill-opacity="0.5"/>
<path d="M19.1175 14.4941C19.1175 14.4941 -1.45732 28.9884 0.686946 36.7221C3.18859 42.9192 22.5891 38.361 22.5891 38.361C22.5891 38.361 7.17081 39.3341 5.23076 34.827C3.08649 29.8591 19.1175 14.4941 19.1175 14.4941Z" fill="white"/>
<path d="M33.668 18.2852C33.668 18.2852 47.81 32.4209 43.6236 38.1571C39.4371 43.8933 14.8801 34.111 15.3907 33.4452C15.3907 33.4452 34.1786 36.9279 36.8334 33.394C39.5392 29.8601 33.9743 19.0022 33.668 18.2852Z" fill="white" fill-opacity="0.5"/>
<path d="M33.668 18.2852C33.668 18.2852 47.81 32.4209 43.6236 38.1571C39.4371 43.8933 14.8801 34.111 15.3907 33.4452C15.3907 33.4452 36.0676 39.4375 39.7434 34.828C42.8577 30.9868 33.9743 19.0022 33.668 18.2852Z" fill="white"/>
</g>
<defs>
<clipPath id="clip0_17269_156343">
<rect width="43.8554" height="40" fill="white" transform="translate(0.533691)"/>
</clipPath>
</defs>
</svg>
