<svg width="139" height="40" viewBox="0 0 139 40" fill="none" xmlns="http://www.w3.org/2000/svg">
<path d="M37.6546 32.4185L38.8396 24.266C39.1529 22.1191 39.5888 19.4016 40.1336 16.5482H40.0519C38.9894 19.1027 37.7772 21.8338 36.7147 23.9942L32.7374 32.1468H29.5092L28.8009 24.1029C28.6238 21.9289 28.4876 19.2114 28.365 16.5618C27.8202 19.1706 27.2481 22.1327 26.7577 24.2796L24.8236 32.4321H20.9824L25.8451 12.6758H31.4025L32.0155 20.1761C32.1244 22.024 32.3287 24.2524 32.356 26.4672H32.4786C33.2424 24.3271 34.1153 22.2274 35.0938 20.1761L38.7034 12.6758H44.3153L41.6864 32.4185H37.6546Z" fill="white"/>
<path d="M55.2662 31.6036C53.6266 32.3703 51.8326 32.7514 50.0221 32.7178C45.9358 32.7178 43.9062 30.4079 43.9062 26.6849C43.9062 22.3097 47.0255 17.7715 52.0789 17.7715C54.9257 17.7715 56.9824 19.3884 56.9824 22.0516C56.9824 25.7066 53.4955 27.0246 47.8427 26.8887C47.8554 27.4077 48.0058 27.9141 48.2786 28.3562C48.613 28.7424 49.0339 29.0445 49.5072 29.2381C49.9805 29.4316 50.4929 29.5112 51.0028 29.4704C52.38 29.4771 53.739 29.1557 54.9665 28.5328L55.2662 31.6036ZM51.6021 20.8423C50.7927 20.8796 50.021 21.1949 49.4178 21.7347C48.8146 22.2745 48.417 23.0057 48.2922 23.8044C51.5204 23.8044 53.1277 23.3696 53.1277 22.0787C53.1277 21.345 52.5556 20.8423 51.6021 20.8423Z" fill="white"/>
<path d="M73.1235 11.6152L70.263 26.8605C69.9304 28.6963 69.7301 30.5535 69.6637 32.4178H65.809L65.9997 30.1079C65.5212 30.9024 64.8471 31.5617 64.0413 32.023C63.2355 32.4844 62.3248 32.7326 61.3957 32.7439C58.9984 32.7439 57.0098 30.8145 57.0098 27.3089C57.0098 22.3222 60.5512 17.7976 65.8907 17.7976C66.5453 17.7903 67.1959 17.9008 67.8112 18.1237L69.0235 11.6424L73.1235 11.6152ZM67.1574 21.4662C66.6959 21.1389 66.1437 20.9632 65.5774 20.9635C63.112 20.9635 61.3549 23.8984 61.3549 26.6431C61.3549 28.3823 62.104 29.3606 63.3027 29.3606C64.5013 29.3606 65.9588 28.0018 66.5036 25.2843L67.1574 21.4662Z" fill="white"/>
<path d="M72.2788 27.8518C73.6678 28.6757 75.2532 29.1121 76.8691 29.1154C78.4764 29.1154 79.9475 28.3545 79.9475 26.792C79.9475 25.6778 79.1166 24.944 77.3322 24.0744C75.2482 22.9331 73.2459 21.3569 73.2459 18.8296C73.2459 14.8485 76.6784 12.4163 80.9146 12.4163C82.5009 12.3416 84.079 12.6837 85.4912 13.4082L84.1972 16.9274C83.0844 16.3104 81.8336 15.9833 80.5604 15.9763C78.6262 15.9763 77.6183 16.9817 77.6183 18.0551C77.6183 19.1286 78.8033 19.9031 80.4378 20.8406C82.8079 22.1042 84.3062 23.7212 84.3062 26.0582C84.3062 30.4606 80.7239 32.7161 76.406 32.7161C74.4578 32.8414 72.518 32.3672 70.8486 31.3574L72.2788 27.8518Z" fill="white"/>
<path d="M95.1345 31.9824C93.8666 32.5065 92.5018 32.7566 91.1299 32.7162C90.3374 32.7903 89.5382 32.6903 88.7885 32.4232C88.0389 32.1561 87.357 31.7284 86.7909 31.1701C86.2248 30.6119 85.7882 29.9367 85.5118 29.192C85.2354 28.4473 85.126 27.6513 85.1911 26.8599C85.1647 25.652 85.385 24.4514 85.8388 23.3313C86.2925 22.2111 86.9701 21.1948 87.8304 20.3443C88.6906 19.4938 89.7154 18.827 90.8423 18.3844C91.9693 17.9417 93.1748 17.7327 94.3853 17.7698C95.3567 17.7525 96.3226 17.9185 97.2321 18.259L96.2242 21.4928C95.6201 21.2441 94.9706 21.1238 94.3172 21.1396C93.6552 21.1619 93.0043 21.3164 92.4031 21.5939C91.8019 21.8714 91.2625 22.2663 90.8168 22.7552C90.3712 23.2441 90.0282 23.8171 89.8083 24.4405C89.5883 25.0638 89.4958 25.7248 89.5362 26.3844C89.5021 26.7612 89.5472 27.1411 89.6688 27.4996C89.7903 27.858 89.9855 28.1872 90.242 28.4661C90.4985 28.7449 90.8105 28.9673 91.158 29.1189C91.5056 29.2705 91.8811 29.348 92.2605 29.3464C93.1984 29.3343 94.1246 29.1356 94.9847 28.7622L95.1345 31.9824Z" fill="white"/>
<path d="M110.404 23.6541C110.404 28.9125 106.89 32.7442 101.986 32.7442C101.193 32.7914 100.398 32.6707 99.6548 32.39C98.9114 32.1093 98.2359 31.6751 97.6725 31.1157C97.1092 30.5563 96.6707 29.8844 96.386 29.1441C96.1012 28.4038 95.9766 27.6118 96.0202 26.82C96.0202 21.847 99.4255 17.7707 104.438 17.7707C105.227 17.7262 106.017 17.8474 106.757 18.1264C107.496 18.4054 108.169 18.836 108.731 19.3905C109.293 19.9449 109.733 20.6109 110.021 21.3453C110.309 22.0797 110.44 22.8663 110.404 23.6541ZM100.311 26.7385C100.311 28.4098 101.128 29.5239 102.558 29.5239C104.833 29.5239 106.1 26.1542 106.1 23.6949C106.1 22.3361 105.555 20.9774 103.893 20.9774C101.496 20.9638 100.284 24.4558 100.311 26.7385Z" fill="white"/>
<path d="M109.069 38.2344L111.794 23.6277C112.107 21.9293 112.461 19.5515 112.624 18.0976H116.343L116.084 20.1765C116.596 19.4494 117.271 18.8527 118.057 18.4349C118.843 18.017 119.716 17.7897 120.606 17.7715C123.671 17.7715 125.142 20.258 125.142 23.2065C125.142 28.1931 121.887 32.7178 116.97 32.7178C116.058 32.7456 115.154 32.5447 114.341 32.1335L113.251 38.2344H109.069ZM114.981 28.8453C115.234 29.0825 115.531 29.2672 115.856 29.3885C116.181 29.5098 116.527 29.5653 116.874 29.5519C119.094 29.5519 120.824 26.3316 120.824 23.519C120.824 22.3641 120.361 21.1684 119.013 21.1684C117.46 21.1684 116.016 22.9619 115.498 25.7746L114.981 28.8453Z" fill="white"/>
<path d="M136.87 31.6036C135.231 32.3717 133.436 32.7529 131.626 32.7178C127.539 32.7178 125.523 30.4079 125.523 26.6849C125.523 22.3097 128.629 17.7715 133.696 17.7715C136.543 17.7715 138.586 19.3884 138.586 22.0516C138.586 25.7066 135.099 27.0246 129.46 26.8887C129.468 27.4066 129.614 27.913 129.882 28.3562C130.218 28.7407 130.639 29.0416 131.112 29.235C131.585 29.4285 132.097 29.5091 132.606 29.4704C133.976 29.4793 135.329 29.1675 136.556 28.56L136.87 31.6036ZM133.206 20.8423C132.397 20.8821 131.627 21.1983 131.024 21.7376C130.421 22.277 130.023 23.0067 129.896 23.8044C133.124 23.8044 134.745 23.3696 134.745 22.0787C134.745 21.345 134.159 20.8423 133.206 20.8423Z" fill="white"/>
<path d="M5.05888 25.9097C3.30177 10.1074 24.0739 3.53098 48.5509 1.71025C49.5043 1.64231 53.6043 1.26186 54.5441 1.30262L66.4898 1.05804L46.0582 0.0661516C22.4802 -0.76269 2.4164 6.27567 0.509457 16.7653C-0.525742 22.2003 0.999814 28.5593 5.41303 34.4291L9.92159 40C9.92159 40 5.64459 30.4751 5.05888 25.9097Z" fill="white"/>
</svg>
